<svg xmlns="http://www.w3.org/2000/svg" viewBox="0 0 1207 856"><defs><style>.cls-1{fill:#fff;}</style></defs><title>allstargraphics</title><g id="Layer_1" data-name="Layer 1"><path class="cls-1" d="M303.45,427.34c14.5,0,29-.09,43.5.05a63.2,63.2,0,0,1,11.88,1.25c15.29,3.13,21.05,11.7,19.51,28.78-1.8,19.82-6.63,39.37-10,59.06-.59,3.41-2.22,4.82-5.69,4.78-10.17-.12-20.33-.09-30.5,0-3.85,0-4.91-1.76-4.37-5.34.86-5.69-.32-7-6.26-7.09-11.83-.09-23.67.06-35.5-.06-5.12-.05-8.41,2.09-9.25,7.14-.74,4.4-3.22,5.51-7.34,5.42-9.66-.22-19.33-.16-29-.05-4,.05-5.5-1.5-4.49-5.47,1.34-5.29,1.77-11,4-15.88,6.06-13.48,18.13-19.21,31.75-21.37,8.81-1.4,17.91-1.07,26.88-1.23q15.5-.27,31,0c4.06.08,5.79-1,6.41-5.4,1.37-9.75.46-11.22-9.37-11.23q-37,0-74,0c-6.43,0-6.45-.1-5.22-6.6,1.36-7.2,2.83-14.39,3.93-21.63.59-3.83,2.16-5.27,6.19-5.22C272.78,427.48,288.12,427.34,303.45,427.34Z"/><path class="cls-1" d="M797.63,427.34c14.16,0,28.32-.07,42.48.05A69.94,69.94,0,0,1,852,428.45c13.4,2.43,20,9,20,22.62,0,10.7-1.88,21.46-3.45,32.11s-3.92,20.91-5.57,31.41c-.74,4.7-2.41,7-7.63,6.77-9.32-.39-18.66-.24-28-.06-4.56.1-6.67-1.24-5.29-6.1,1.28-4.51-1.29-6.29-5.24-6.33-12.65-.12-25.32-.08-38,0-4.53,0-7.27,2.57-7.92,6.83-.72,4.63-3.2,5.8-7.56,5.68-9.48-.27-19-.19-28.48-.06-4.17.06-5.54-1.31-4.83-5.67,4.06-24.92,19.29-38.11,44.82-38.3,16.15-.11,32.31,0,48.47,0,5.87,0,7.58-2.38,7.63-10.5,0-3.77-2.58-6-7.55-6-15-.08-30,0-45,0-11.16,0-22.33-.09-33.48,0-3.6,0-4.71-1.09-3.93-4.77,1.69-8,3.14-16,4.4-24.05.56-3.53,2.18-4.67,5.66-4.63C766.65,427.43,782.14,427.35,797.63,427.34Z"/><path class="cls-1" d="M601,427.34h39c5.72,0,6,.25,4.95,6-1.34,7.37-3,14.67-4.19,22.06-.65,4.05-2.41,5.45-6.59,5.42-21.48-.2-43-.16-64.45,0-2.71,0-6.28.28-7.9,1.94a13.64,13.64,0,0,0-3.68,8.91c.09,3.56,3.9,3.82,7,3.87,14.64.22,29.31-.09,43.9.88,16.8,1.12,25.52,13.65,22.21,30.34l-1,4.89c-2.06,10.58,0,9.56-11.91,9.63-8.16.06-16.32,0-24.48,0-3.44,0-5.54-.75-5.81-4.91-.32-5-4.19-6.33-8.6-6.35-9.16,0-18.32.12-27.48-.08a81.59,81.59,0,0,1-13.88-1.25c-16.39-3.18-23.86-13.84-21.41-30.26.91-6.07,2.21-12.09,3.07-18.17,2.93-20.57,16.94-30.28,34.32-31.74,15.52-1.29,31.24-.27,46.87-.27Z"/><path class="cls-1" d="M408.25,521.26h-13.5c-6.86,0-7-.22-5.72-7.17,3.23-17.35,6.49-34.7,9.66-52.06q11-60.4,22-120.82c1.25-6.92,1.21-6.93,8.18-6.92,9.33,0,18.67.15,28-.07,4.31-.1,5.47,1.17,4.66,5.55q-11.13,60.12-21.93,120.29-4.86,26.74-9.66,53.49c-1.38,7.67-1.34,7.68-9.16,7.7Z"/><path class="cls-1" d="M467.55,521.25c-4.66,0-9.33,0-14,0-5.64-.06-6-.42-5-6.15,3-16.71,6-33.41,9.08-50.11,7.64-41.86,15.35-83.71,22.84-125.59.72-4,2.32-5.25,6.22-5.17,10.16.21,20.33.15,30.49,0,3.77-.05,4.8,1,4,5-10.57,57.11-20.84,114.29-31.46,171.4-2.05,11.05.7,10.61-12.74,10.59Z"/><path class="cls-1" d="M693.78,372.43c5.17,0,10.33.06,15.49,0,3.45-.05,4.69,1,4,4.82-2.92,14.86-5.43,29.79-8.35,44.65-.84,4.3.31,5.75,4.65,5.53,5.32-.28,10.66,0,16-.1,3.37-.06,4.85.74,4,4.69-1.79,7.76-3.16,15.63-4.44,23.5-.61,3.81-2.27,5.47-6.27,5.27-5.48-.27-11,.07-16.48-.12-3.29-.11-4.73,1.15-5.3,4.41-2.89,16.54-6.11,33-8.87,49.59-.79,4.79-2.48,6.91-7.65,6.71-9.47-.37-19-.2-28.46-.08-4,.05-5.54-.9-4.68-5.52,7.08-37.9,13.89-75.84,20.78-113.77,1.52-8.33,3.13-16.65,4.45-25,.51-3.28,2-4.63,5.27-4.57C683.13,372.5,688.46,372.43,693.78,372.43Z"/><path class="cls-1" d="M877,520.29c1.54-8.57,3.07-17.2,4.64-25.83,2-10.81,3.83-21.64,6-32.4,3.18-15.85,10.72-28.49,27.31-33,5.66-1.55,11.84-1.45,17.79-1.62,8.65-.25,17.31,0,26-.08,3.17,0,4.5.78,3.69,4.44-1.76,7.94-3.1,16-4.46,24-.6,3.57-2.31,5.21-6.06,5s-7.32-.05-11-.05c-8.93,0-13.26,3.69-14.92,12.69-2.66,14.38-5.36,28.74-7.91,43.13-.51,2.85-1.54,4.68-4.7,4.66-11.48,0-23-.05-34.46-.11A7.7,7.7,0,0,1,877,520.29Z"/></g></svg>