<svg xmlns="http://www.w3.org/2000/svg" viewBox="0 0 983 856"><defs><style>.cls-1{fill:#fff;}</style></defs><title>allstargraphics</title><g id="Layer_1" data-name="Layer 1"><path class="cls-1" d="M365.59,375.87C363,401.63,351.11,420,330.22,433c-19.05,11.77-38.87,16.71-62,7.34,5.09-3.52,9.18-6.43,13.35-9.22,7.31-4.9,14.53-10,22.06-14.51,4.17-2.51,3.84-4.44.84-7.53-13-13.39-25.8-27-38.88-40.31-7.61-7.74-11.51-17-12.5-27.6a21.71,21.71,0,0,0-.81-3.32l1.74-.47,3.31,3.45c19.65,20.4,39.37,40.75,58.9,61.28,2.7,2.84,4.63,3.21,7.9,1C336,395,348,387.24,360,379.39,361.46,378.41,363,377.49,365.59,375.87Z"/><path class="cls-1" d="M515.9,617.75q-8.75-5.78-17.15-11.86T482.1,593.54a25.68,25.68,0,0,1-3.52-3.7c-1.12-1.29-2.33-2.48-3.5-3.72L468,578.75,453.83,564l-56.66-58.93-56.65-58.93-28.33-29.47c-3.93-5.67-7.85-11.36-11.67-17.13S292.92,388,289.26,382q8.69,5.82,17.08,11.93C312,398,317.49,402.15,323,406.29l28.33,29.47L408,494.69l56.65,58.93,14.17,14.74,7.08,7.36c1.19,1.22,2.34,2.48,3.58,3.65A25.14,25.14,0,0,1,493,583q5.94,8.47,11.68,17.13T515.9,617.75Z"/><path class="cls-1" d="M571.78,328.46c-19.73,16.76-41,21.8-65,16.63-21.89-4.72-39.59-14.89-49.78-37.67,6.12,1,11.08,1.73,16,2.61,8.67,1.53,17.39,2.87,26,4.83,4.75,1.08,5.85-.54,5.82-4.85-.1-18.67.11-37.34-.09-56-.11-10.86,3.45-20.2,10.12-28.56a22.19,22.19,0,0,0,1.72-3l1.58.87c0,1.59,0,3.18,0,4.78,0,28.33.13,56.66,0,85,0,3.93,1.11,5.53,5,6.2,14.11,2.41,28.16,5.15,42.23,7.77C567.05,327.43,568.79,327.83,571.78,328.46Z"/><path class="cls-1" d="M512.5,607q-2.29-10.21-4.13-20.44t-3.45-20.44a25.56,25.56,0,0,1,0-5.1c.09-1.71.05-3.41.06-5.11v-235c1.1-6.81,2.22-13.62,3.46-20.43s2.56-13.63,4-20.44q2.22,10.22,4,20.44c1.24,6.81,2.36,13.62,3.46,20.43v235c0,1.7,0,3.4.06,5.11a25.56,25.56,0,0,1,0,5.1q-1.59,10.23-3.45,20.44T512.5,607Z"/><path class="cls-1" d="M727.5,434.62c-25.87,1.07-45.77-8.06-61.51-26.91-14.36-17.18-22.06-36.09-16.08-60.32,4.21,4.55,7.67,8.18,11,11.91,5.9,6.54,11.94,13,17.5,19.78,3.08,3.77,4.94,3.17,7.58-.25,11.4-14.78,23-29.36,34.37-44.2,6.59-8.63,15.15-13.8,25.55-16.29a21,21,0,0,0,3.17-1.28l.71,1.66-2.94,3.76c-17.41,22.36-34.75,44.76-52.29,67-2.43,3.08-2.53,5,.13,8,9.64,10.58,19,21.39,28.52,32.11C724.41,430.9,725.53,432.28,727.5,434.62Z"/><path class="cls-1" d="M509.42,617.75q4.47-9.46,9.31-18.65t9.85-18.24a25.53,25.53,0,0,1,3.17-4c1.12-1.29,2.13-2.66,3.19-4l6.28-8.06,12.57-16.11,50.29-64.46,50.29-64.45,25.15-32.22c5.05-4.7,10.13-9.38,15.3-14s10.4-9.16,15.75-13.63q-4.53,9.42-9.39,18.6c-3.21,6.13-6.51,12.2-9.84,18.24L666.2,429l-50.29,64.45-50.29,64.45L553.05,574l-6.29,8.05c-1,1.35-2.12,2.67-3.1,4.07a24.88,24.88,0,0,1-3.12,4c-5,4.72-10.11,9.39-15.29,14S514.82,613.32,509.42,617.75Z"/></g></svg>