<svg xmlns="http://www.w3.org/2000/svg" viewBox="0 0 983 923"><title>allstargraphics</title><g id="Layer_1" data-name="Layer 1"><polygon points="587.98 544 346 544 346 532 568.02 532 546.7 491.81 557.3 486.19 587.98 544"/><path d="M592.13,546.5H343.5v-17H563.87l-20.55-38.72,15-8Zm-243.63-5H583.82l-27.56-51.93-6.18,3.28,22.1,41.65H348.5Z"/><path d="M349.89,500,314.58,370.15l275.72-4.07L603,329.82l63.75-9.73,2.42,15.82L615,344.18l-11.37,32.35L564.87,499ZM335.42,385.85,362.11,484l191-.94L585,382.16Z"/><circle cx="366.1" cy="583.1" r="20.1"/><circle cx="566.9" cy="583.1" r="20.1"/></g></svg>