<svg xmlns="http://www.w3.org/2000/svg" viewBox="0 0 1044 945"><defs><style>.cls-1{fill:#fff;}</style></defs><title>allstargraphics</title><g id="Layer_1" data-name="Layer 1"><path class="cls-1" d="M394.86,281a86.87,86.87,0,1,0,86.87,86.86A87,87,0,0,0,394.86,281Zm0,147.19a60.33,60.33,0,1,1,60.33-60.33A60.39,60.39,0,0,1,394.86,428.19Z"/><path class="cls-1" d="M619.83,495.55l-36-24.81-57.06-39.33-13.12-9.05a3,3,0,0,0-4,1.06l-15.06,21.85a3,3,0,0,0,1.05,4l36,24.81,57.06,39.33,13.12,9.05a2.46,2.46,0,0,0,3.46-.43,3.37,3.37,0,0,0,.56-.62l15.07-21.86A3,3,0,0,0,619.83,495.55Z"/></g></svg>