<svg xmlns="http://www.w3.org/2000/svg" viewBox="0 0 1366 895"><defs><style>.cls-1{fill:#fff;}</style></defs><title>allstargraphics</title><g id="Layer_1" data-name="Layer 1"><path class="cls-1" d="M415.16,364.34c14.5,0,29-.09,43.5.05a63.12,63.12,0,0,1,11.88,1.25c15.29,3.13,21,11.7,19.51,28.78-1.79,19.82-6.63,39.37-10,59.06-.59,3.41-2.23,4.82-5.7,4.78-10.16-.12-20.33-.09-30.5,0-3.85,0-4.91-1.76-4.37-5.34.86-5.69-.31-7.05-6.26-7.09-11.83-.09-23.66.06-35.5-.06-5.11-.05-8.41,2.09-9.25,7.14-.74,4.4-3.21,5.51-7.33,5.42-9.67-.22-19.34-.16-29-.05-4,.05-5.5-1.5-4.49-5.47,1.35-5.29,1.77-11,4-15.88,6.06-13.48,18.13-19.21,31.76-21.37,8.8-1.4,17.9-1.07,26.88-1.23q15.5-.27,31,0c4.06.08,5.79-1,6.41-5.4,1.38-9.75.46-11.22-9.37-11.23q-37,0-74,0c-6.43,0-6.45-.1-5.22-6.6,1.37-7.2,2.83-14.39,3.94-21.63.58-3.83,2.15-5.27,6.18-5.22C384.49,364.48,399.83,364.34,415.16,364.34Z"/><path class="cls-1" d="M909.34,364.34c14.16,0,28.32-.07,42.48.05a69.85,69.85,0,0,1,11.91,1.06c13.4,2.43,20,9,20,22.62,0,10.7-1.88,21.46-3.45,32.11s-3.91,20.91-5.57,31.41c-.74,4.7-2.41,7-7.63,6.77-9.31-.39-18.66-.24-28-.06-4.55.1-6.67-1.24-5.29-6.1,1.29-4.51-1.29-6.29-5.23-6.33-12.66-.12-25.32-.08-38,0-4.53,0-7.27,2.57-7.92,6.83-.72,4.63-3.2,5.8-7.55,5.68-9.49-.27-19-.19-28.48-.06-4.18.06-5.55-1.31-4.84-5.67,4.06-24.92,19.29-38.11,44.82-38.3,16.16-.11,32.31,0,48.47,0,5.88,0,7.58-2.38,7.63-10.5,0-3.77-2.58-6-7.55-6-15-.08-30,0-45,0-11.16,0-22.32-.09-33.48,0-3.6,0-4.7-1.09-3.93-4.77,1.69-8,3.14-16,4.41-24.05.55-3.53,2.17-4.67,5.65-4.63C878.36,364.43,893.85,364.35,909.34,364.34Z"/><path class="cls-1" d="M712.71,364.34h39c5.73,0,6,.25,5,6-1.34,7.37-3,14.67-4.19,22.06-.65,4.05-2.41,5.45-6.59,5.42-21.48-.2-43-.16-64.44,0-2.71,0-6.29.28-7.91,1.94a13.64,13.64,0,0,0-3.68,8.91c.1,3.56,3.91,3.82,7,3.87,14.64.22,29.31-.09,43.9.88,16.8,1.12,25.52,13.65,22.21,30.34-.32,1.63-.64,3.26-1,4.89-2.07,10.58,0,9.56-11.92,9.63-8.16.06-16.32,0-24.48,0-3.44,0-5.53-.75-5.81-4.91-.32-5-4.19-6.33-8.6-6.35-9.16,0-18.32.12-27.47-.08a81.62,81.62,0,0,1-13.89-1.25c-16.39-3.18-23.86-13.84-21.41-30.26.91-6.07,2.21-12.09,3.07-18.17,2.93-20.57,16.94-30.28,34.32-31.74,15.52-1.29,31.24-.27,46.87-.27Z"/><path class="cls-1" d="M520,458.26h-13.5c-6.86,0-7-.22-5.72-7.17,3.23-17.35,6.49-34.7,9.66-52.06q11-60.4,22-120.82c1.26-6.92,1.21-6.93,8.18-6.92,9.33,0,18.67.15,28-.07,4.31-.1,5.47,1.17,4.66,5.55-7.42,40.08-14.65,80.19-21.93,120.29q-4.86,26.74-9.66,53.49c-1.37,7.67-1.34,7.68-9.16,7.7Z"/><path class="cls-1" d="M579.27,458.25c-4.67,0-9.34,0-14,0-5.64-.06-6-.42-5-6.15,3-16.71,6-33.41,9.08-50.11,7.64-41.86,15.35-83.71,22.84-125.59.72-4,2.33-5.25,6.22-5.17,10.16.21,20.33.15,30.49,0,3.77-.05,4.8,1,4.05,5-10.57,57.11-20.84,114.29-31.46,171.4-2,11,.7,10.61-12.74,10.59Z"/><path class="cls-1" d="M805.5,309.43c5.16,0,10.32.06,15.48,0,3.45-.05,4.69,1,3.95,4.82-2.92,14.86-5.43,29.79-8.35,44.65-.84,4.3.31,5.75,4.65,5.53,5.32-.28,10.66,0,16-.1,3.38-.06,4.86.74,3.95,4.69-1.79,7.76-3.16,15.63-4.44,23.5-.61,3.81-2.27,5.47-6.27,5.27-5.48-.27-11,.07-16.47-.12-3.29-.11-4.74,1.15-5.31,4.41-2.88,16.54-6.11,33-8.86,49.59-.8,4.79-2.49,6.91-7.65,6.71-9.48-.37-19-.2-28.47-.08-4,.05-5.54-.9-4.68-5.52,7.08-37.9,13.9-75.84,20.78-113.77,1.52-8.33,3.13-16.65,4.45-25,.52-3.28,2-4.63,5.27-4.57C794.84,309.5,800.17,309.43,805.5,309.43Z"/><path class="cls-1" d="M988.72,457.29c1.53-8.57,3.06-17.2,4.63-25.83,2-10.81,3.83-21.64,6-32.4,3.18-15.85,10.71-28.49,27.3-33,5.66-1.55,11.84-1.45,17.79-1.62,8.65-.25,17.32,0,26-.08,3.17,0,4.5.78,3.69,4.44-1.76,7.94-3.1,16-4.46,24-.6,3.57-2.31,5.21-6.06,5s-7.32-.05-11-.05c-8.93,0-13.26,3.69-14.92,12.69-2.65,14.38-5.35,28.74-7.91,43.13-.51,2.85-1.54,4.68-4.7,4.66-11.48,0-23-.05-34.45-.11A7.55,7.55,0,0,1,988.72,457.29Z"/><path class="cls-1" d="M410.79,469.2c20.15,0,40.31.1,60.47-.07,4.46,0,6,1,4.84,5.74-1.5,6.13-2.37,12.42-3.42,18.66-.5,3-1.95,4.13-5.08,4.12-30.65-.09-61.3.11-92-.16-8.15-.07-16.25-1.52-23.3-6.35-6.63-4.54-8.79-10.92-8.09-18.64.31-3.44,2.68-3.28,5.06-3.28q17.49,0,35,0Z"/><path class="cls-1" d="M313.07,405.85c16.76,19.73,21.8,41,16.63,65C325,492.79,314.81,510.49,292,520.68c1-6.12,1.73-11.08,2.6-16,1.54-8.67,2.88-17.39,4.84-26,1.08-4.75-.54-5.85-4.86-5.82-18.66.1-37.33-.11-56,.09-10.85.11-20.2-3.45-28.56-10.12a22.07,22.07,0,0,0-3-1.72l.87-1.58h4.77c28.34,0,56.67-.13,85,0,3.92,0,5.52-1.11,6.19-5,2.42-14.11,5.15-28.16,7.78-42.23C312,410.57,312.44,408.84,313.07,405.85Z"/><path class="cls-1" d="M738.29,469.2c-2,11.47-7.92,19-17.33,23.16-6.27,2.75-13.33,5-20.09,5.11-27.78.57-55.57.25-83.36.24a21.74,21.74,0,0,1-2.76-.47c1-6.29,1.8-12.47,2.92-18.59,1.9-10.4-.08-9.43,11.46-9.44q51.18,0,102.35,0Z"/><path class="cls-1" d="M512.32,497.6c-5.33,0-10.66-.07-16,0-2.87.06-3.9-1-3.34-3.92,1.31-6.85,2.22-13.79,3.78-20.57.36-1.54,2.68-3.69,4.14-3.73,11-.32,22-.15,33-.2,3.16,0,4.13,1.47,3.54,4.41-1.29,6.52-2.65,13-3.76,19.59-.55,3.23-2.08,4.55-5.37,4.44C523,497.48,517.64,497.6,512.32,497.6Z"/><path class="cls-1" d="M597.52,469.28c-1.61,8.87-2.81,16.73-4.62,24.44-.37,1.57-3,3.65-4.63,3.7-10.63.34-21.28.11-31.92.21-3.51,0-4.28-1.47-3.62-4.66,1.33-6.51,2.29-13.1,3.77-19.58.36-1.54,2.16-3.9,3.34-3.93C572.08,469.17,584.34,469.28,597.52,469.28Z"/><path class="cls-1" d="M801.5,469.11c-1.72,8.83-3.28,17.44-5.19,26a4.37,4.37,0,0,1-3.51,2.45c-2.17-.33-5-1.11-6.11-2.71-2.52-3.75-4.16-8.1-6.16-12.21l-1.37.16c-.83,3.58-1.88,7.13-2.44,10.75s-2.63,4.73-5.92,4.13c-3.75-.68-1.81-3.35-1.5-5.12,1.16-6.7,2.41-13.38,4-20,.37-1.55,2-3.57,3.36-4,2.46-.69,5.24-.67,6.67,2.6,1.83,4.2,4,8.25,6,12.36l1.67.05c.66-3.22,1.58-6.41,1.92-9.66C793.44,468.91,795.86,467.3,801.5,469.11Z"/><path class="cls-1" d="M928.79,483.35c.73-3.3,1.8-6.56,2.12-9.89.49-5.15,3.26-5.88,8.25-4.45-.52,3.42-1,6.94-1.6,10.42-.87,4.73-1.69,9.49-3,14.12-.42,1.56-2.18,3.95-3.25,3.91-2.29-.09-5.46-.86-6.62-2.52-2.6-3.7-4.2-8.11-6.21-12.24l-1.4,0c-.64,2.39-1.31,4.77-1.9,7.17-.44,1.77-.21,4.09-1.27,5.23-1.29,1.37-3.63,1.75-5.52,2.55-.47-1.32-1.53-2.73-1.33-3.94,1.22-7.19,2.6-14.36,4.23-21.47.33-1.43,2-3.69,3-3.6,2.33.21,5.48.86,6.64,2.51,2.66,3.8,4.33,8.29,6.41,12.49Z"/><path class="cls-1" d="M1086.8,483.55c.74-3.33,1.73-6.63,2.14-10,.6-4.9,3.1-6.13,8.35-4.42-1.79,8.87-3.48,17.78-5.54,26.61-.21.92-2.68,2-3.92,1.83-1.86-.29-4.26-1.19-5.18-2.64-2.46-3.86-4.26-8.16-6.33-12.28l-1.35,0a109.28,109.28,0,0,1-2.49,11.13,6.35,6.35,0,0,1-3.6,3.75c-3.07.8-5.08-.08-4.1-4.21,1.65-6.94,2.68-14,4.31-21,.36-1.51,2.28-3.82,3.33-3.74,2.3.18,5.39,1,6.55,2.72,2.58,3.76,4.17,8.2,6.17,12.36Z"/><path class="cls-1" d="M899.41,497.07c-9.07,1.37-9.07,1.37-11.64-5.77a7.9,7.9,0,0,0-.85-2.32,42.93,42.93,0,0,0-3.29-3.32,19.14,19.14,0,0,0-2.58,3.66,22.78,22.78,0,0,0-1.2,5.33c-.59,4.14-3.8,3.3-6.14,2.8-.86-.19-1.85-3-1.62-4.46,1.1-6.88,2.73-13.68,3.88-20.56.5-3,1.64-4.32,4.85-4.1,4,.27,8,0,12,.07,3.54.07,7.45.11,8.49,4.44s-1,7.72-4.69,10.09c-.82.53-1.7.95-2.45,1.37C895.87,488.47,897.53,492.52,899.41,497.07Zm-16-16.61c3.51-.36,7.54,1.57,9.19-3.22.23-.68-2.26-3.09-3.78-3.43C883.82,472.69,883.13,476,883.38,480.46Z"/><path class="cls-1" d="M1040.2,497.82c-4.56.25-9.3-.52-11.46-5.53-2.88-6.67-.46-12.83,3.6-18.16,4.32-5.66,13.48-8.14,19.93-5.09,2.61,1.24,5.4,4.35,6,7.1C1061.05,487.68,1052.44,497.83,1040.2,497.82Zm10.92-18.06c-1.26-1.72-2.2-4.36-3.84-4.91-2-.67-5.42-.39-6.71.95a15.66,15.66,0,0,0-4.21,8.53c-.25,2.37,1.23,6,3.15,7.28,3,2,6.64.37,8.46-2.84C1049.39,486.27,1049.93,483.27,1051.12,479.76Z"/><path class="cls-1" d="M851,479.52a76.26,76.26,0,0,1,9.32.13c1.22.14,2.28,1.67,3.41,2.57-1.22.83-2.35,2.12-3.67,2.37a24.22,24.22,0,0,1-6.48.07c-3.25-.28-5.18,1-5.38,4.28-.24,4,2.92,2.77,5,3s4.07-.27,6,.18c1.39.33,2.54,1.66,3.79,2.54-1.21,1-2.39,2.85-3.65,2.91-6.48.3-13,.14-20.14.14a25.49,25.49,0,0,1,0-4.39c1.29-6.87,2.8-13.71,4-20.59.55-3.14,1.79-4.63,5.24-4.43,5,.28,10-.07,15,.17,1.32.07,2.58,1.3,3.86,2-1.34,1.09-2.56,2.81-4.07,3.11a33.11,33.11,0,0,1-8,.15C851.41,473.55,850.14,475.32,851,479.52Z"/><path class="cls-1" d="M1129.34,497.42c-4.25.1-7.93,2-9.49-3.51-.62-2.22-10.41-1.89-11.7.53-2.2,4.14-5.31,3.53-9.7,2.72,5.45-9.5,10.46-18.6,15.89-27.46,1.69-2.75,9.7-1.82,10.28,1C1126.39,479.44,1127.74,488.23,1129.34,497.42Zm-10.54-20.1-2-.31-5.32,10.46c3.45-.53,6.87-.5,7-1.18C1119.16,483.41,1118.8,480.33,1118.8,477.32Z"/><path class="cls-1" d="M940.86,496.71c5.16-9,10.08-18.18,15.74-26.86,1-1.51,5.14-1.4,7.75-1.16,1,.1,2.36,2.49,2.67,4q2.12,10.21,3.61,20.56c.19,1.37-.93,4.19-1.38,4.17-2.1-.05-5-.2-6.11-1.55a9.27,9.27,0,0,0-14-.25c-1.6,1.66-4.65,1.91-7,2.8Zm12.7-9.42c3.39-.37,6.88-.28,7-.84.56-2.92.26-6,.26-9l-1.84-.36Z"/><path class="cls-1" d="M835.63,469c.87,4.59-1,6.35-5.08,5.79-3.86-.53-5.32,1.47-5.91,4.92-.78,4.58-1.95,9.1-2.65,13.69-.6,3.92-2.87,5-6.33,4.3-4-.77-1.84-3.45-1.5-5.46.74-4.42,1.41-8.86,2.46-13.2.79-3.27-.49-4-3.43-4.36-1.65-.2-3.12-1.77-4.66-2.73,1.67-1.17,3.3-3.26,5-3.36,6.79-.38,13.62-.14,20.43-.09A6.28,6.28,0,0,1,835.63,469Z"/><path class="cls-1" d="M982.84,497.15c1-5.39,2-10.44,3-15.48,1.3-6.55,1.33-6.54-5.32-7a14.5,14.5,0,0,1-2-.36c-.82-4,.1-6.16,4.62-6,6.32.2,12.66-.08,19,.16,1.14.05,2.23,1.58,3.34,2.42-1,1.26-2.26,3.72-3.11,3.59-7.27-1-8,3.78-8.74,8.94-.4,2.79-1.14,5.53-1.7,8.3C990.6,498.18,990.51,498.24,982.84,497.15Z"/><path class="cls-1" d="M1147.37,497.69c-11.2,0-11.22,0-9.12-11,.93-4.91,2.09-9.78,2.89-14.71.6-3.72,3.08-3.95,5.9-3.6,3.69.46,2.11,3.14,1.79,5q-1.11,6.65-2.64,13.22c-.75,3.25.24,4.78,3.66,4.67a29.16,29.16,0,0,1,6.48.16c1.14.21,3.05,1.95,2.92,2.25-.64,1.45-1.7,3.54-2.91,3.77C1153.44,498.06,1150.37,497.69,1147.37,497.69Z"/><path class="cls-1" d="M1103.77,382.72c-8.28,0-13.79-5.47-13.91-13.7-.17-11.78,10.85-22.42,22.6-21.82,9.8.5,15.52,8.71,13,18.74C1123.19,375.3,1113.5,382.78,1103.77,382.72Zm7.71-32.91c-8.55,0-17.53,7.77-18.89,16.36s5.14,15.19,13.7,13.5c8.33-1.65,14-6.57,16.36-14.9C1124.91,356.88,1119.63,349.81,1111.48,349.81Z"/><path class="cls-1" d="M1008.31,497.6c1.89-9.49,3.46-18.4,5.65-27.15.28-1.09,3.82-1.61,5.9-1.79.47,0,1.83,2.6,1.63,3.8-1.26,7.35-2.84,14.63-4.35,21.93C1016.16,499.16,1012.54,497.51,1008.31,497.6Z"/><path class="cls-1" d="M763.28,470.64c-1.7,8.68-3.18,16.51-4.79,24.31-.73,3.51-3.7,3.12-6,2.51-.87-.24-1.82-2.77-1.61-4.07,1.23-7.36,2.86-14.66,4.21-22,.67-3.69,3.4-3.19,5.76-2.89C761.87,468.63,762.69,470.08,763.28,470.64Z"/><path class="cls-1" d="M1098.69,373.66c1.15-5.22,1.55-10.8,3.82-15.47.86-1.75,6.06-1.65,9.32-1.82,1.22-.06,3.72,1.89,3.59,2.33a60.62,60.62,0,0,1-3.35,7.86l-1.43-.34,3,7.28-1.45,1c-1-1.11-2-2.23-3-3.32-1.49-1.58-3-3.13-4.51-4.7-1,1.71-2,3.41-3,5.13-.47.8-.88,1.63-1.32,2.45Zm9.4-17.19-4.16,5c1.38.91,2.92,2.72,4.1,2.51,1.69-.3,3.11-2.09,4.64-3.23C1111.42,359.61,1110.18,358.43,1108.09,356.47Z"/></g></svg>