<svg xmlns="http://www.w3.org/2000/svg" viewBox="0 0 1128 735"><defs><style>.cls-1{fill:#fff;}</style></defs><title>allstargraphics</title><g id="Layer_1" data-name="Layer 1"><path class="cls-1" d="M725,614H429V380H725ZM459.7,583.27H694.3V410.67H459.7Z"/><path class="cls-1" d="M644.64,363l-30.67-1c0-.21.63-22.18-4.93-43.78-2.33-9-9.42-36.55-32.4-37.9a22.49,22.49,0,0,0-17.47,6.25c-18.56,16.92-24,60.93-24.53,76.46l-30.68-1a233.51,233.51,0,0,1,4.76-36.89c5.9-28,15.9-48.59,29.73-61.21a53.46,53.46,0,0,1,40-14.26c16.83,1,31.49,8.72,42.38,22.34,7.95,9.95,14,23.14,18.11,39.2C645.45,336.91,644.68,361.91,644.64,363Z"/></g></svg>